# xmcd
#
# Track frame offsets:
#	182
#	43532
#	72032
#	101507
#	129932
#	163757
#	189332
#	218657
#	244832
#
# Disc length: 3624 seconds
#
# Revision: 1
# Processed by: cddbd v1.4b42PL1 Copyright (c) Steve Scherf et al.
# Submitted via: audiograbber 1.80
#
DISCID=720e2609
DTITLE=Tony O'Connor - Summer Rain
DYEAR=1900
DGENRE=
TTITLE0=Castle of Dreams
TTITLE1=Follow You
TTITLE2=Dreams
TTITLE3=Hello Old Friend
TTITLE4=Dew
TTITLE5=Heart Storm
TTITLE6=Melody
TTITLE7=Fairy Tale
TTITLE8=Raindancing
EXTD=
EXTT0=
EXTT1=
EXTT2=
EXTT3=
EXTT4=
EXTT5=
EXTT6=
EXTT7=
EXTT8=
PLAYORDER=
